<?xml version="1.0" encoding="UTF-8" standalone="no"?>
<!-- Created with Inkscape (http://www.inkscape.org/) -->

<svg
   width="90mm"
   height="90mm"
   viewBox="0 0 90 90"
   version="1.1"
   id="svg1"
   inkscape:version="1.4.2 (ebf0e940, 2025-05-08)"
   sodipodi:docname="icon.svg"
   inkscape:export-filename="icon512.png"
   inkscape:export-xdpi="144.49779"
   inkscape:export-ydpi="144.49779"
   xmlns:inkscape="http://www.inkscape.org/namespaces/inkscape"
   xmlns:sodipodi="http://sodipodi.sourceforge.net/DTD/sodipodi-0.dtd"
   xmlns="http://www.w3.org/2000/svg"
   xmlns:svg="http://www.w3.org/2000/svg">
  <sodipodi:namedview
     id="namedview1"
     pagecolor="#ffffff"
     bordercolor="#000000"
     borderopacity="0.25"
     inkscape:showpageshadow="2"
     inkscape:pageopacity="0.0"
     inkscape:pagecheckerboard="0"
     inkscape:deskcolor="#d1d1d1"
     inkscape:document-units="mm"
     inkscape:zoom="0.89954952"
     inkscape:cx="252.90437"
     inkscape:cy="224.55684"
     inkscape:window-width="1920"
     inkscape:window-height="1021"
     inkscape:window-x="0"
     inkscape:window-y="31"
     inkscape:window-maximized="0"
     inkscape:current-layer="layer1"
     inkscape:export-bgcolor="#ffffff00"
     showgrid="false" />
  <defs
     id="defs1" />
  <g
     inkscape:label="Layer 1"
     inkscape:groupmode="layer"
     id="layer1">
    <path
       id="rect1"
       style="display:inline;opacity:1;fill:#f9f9f9;stroke:none;stroke-width:4.30922;stroke-linecap:square;stroke-linejoin:round;stroke-miterlimit:4.1;paint-order:stroke markers fill"
       d="M 13.196094 19.198311 C 7.3028683 19.198311 2.5585002 23.94268 2.5585002 29.835905 L 2.5585002 61.812764 C 2.5585002 67.70599 7.3028683 72.450358 13.196094 72.450358 L 77.788534 72.450358 C 83.681759 72.450358 88.42561 67.70599 88.42561 61.812764 L 88.42561 29.835905 C 88.42561 23.94268 83.681759 19.198311 77.788534 19.198311 L 13.196094 19.198311 z M 68.047009 31.264758 C 74.621981 31.264758 79.624424 35.433317 80.060229 41.553536 L 74.48951 41.553536 C 73.958965 38.199732 71.381865 36.001937 68.047009 36.001937 C 63.726854 36.001937 60.9415 39.621003 60.9415 45.381209 C 60.9415 51.217208 63.689131 54.817326 68.06613 54.817326 C 71.45783 54.817326 73.901777 52.827787 74.508114 49.587671 L 80.078833 49.587671 C 79.4346 55.688942 74.754617 59.553988 68.047009 59.553988 C 60.088829 59.553988 55.10568 54.229603 55.10568 45.399813 C 55.10568 36.588972 60.126725 31.264758 68.047009 31.264758 z M 11.354346 31.738631 L 29.469002 31.738631 L 29.469002 36.456689 L 17.076994 36.456689 L 17.076994 43.050602 L 28.767753 43.050602 L 28.767753 47.4462 L 17.076994 47.4462 L 17.076994 54.343453 L 29.469002 54.343453 L 29.469002 59.080632 L 11.354346 59.080632 L 11.354346 31.738631 z M 33.031059 38.768176 L 38.564054 38.768176 L 38.564054 50.705432 C 38.564054 53.415003 39.909189 54.85505 42.353487 54.85505 C 44.816733 54.85505 46.351693 53.092713 46.351693 50.402091 L 46.351693 38.768176 L 51.884172 38.768176 L 51.884172 59.080632 L 46.540828 59.080632 L 46.540828 55.42349 L 46.42714 55.42349 C 45.422894 57.981476 43.414408 59.45942 40.344824 59.45942 C 35.948878 59.45942 33.031059 56.598446 33.031059 51.861434 L 33.031059 38.768176 z " />
  </g>
</svg>
